<svg width="16" height="17" viewBox="0 0 16 17" fill="none" xmlns="http://www.w3.org/2000/svg">
<path d="M1.5 0.287842C1.20333 0.287842 0.913319 0.396117 0.666645 0.598975C0.419972 0.801833 0.227713 1.09016 0.114181 1.4275C0.000649929 1.76484 -0.0290551 2.13604 0.0288228 2.49416C0.0867006 2.85228 0.229562 3.18123 0.439341 3.43942C0.649119 3.69761 0.916394 3.87344 1.20737 3.94468C1.49834 4.01591 1.79994 3.97935 2.07403 3.83962C2.34811 3.69989 2.58238 3.46326 2.74721 3.15966C2.91203 2.85607 3 2.49913 3 2.134C3 1.64437 2.84197 1.17479 2.56066 0.828568C2.27936 0.482347 1.89783 0.287842 1.5 0.287842ZM1.5 6.44169C1.20333 6.44169 0.913319 6.54996 0.666645 6.75282C0.419972 6.95568 0.227713 7.24401 0.114181 7.58135C0.000649929 7.91869 -0.0290551 8.28989 0.0288228 8.64801C0.0867006 9.00613 0.229562 9.33508 0.439341 9.59327C0.649119 9.85146 0.916394 10.0273 1.20737 10.0985C1.49834 10.1698 1.79994 10.1332 2.07403 9.99347C2.34811 9.85373 2.58238 9.61711 2.74721 9.31351C2.91203 9.00991 3 8.65298 3 8.28784C3 7.79821 2.84197 7.32863 2.56066 6.98241C2.27936 6.63619 1.89783 6.44169 1.5 6.44169ZM1.5 12.5955C1.20333 12.5955 0.913319 12.7038 0.666645 12.9067C0.419972 13.1095 0.227713 13.3979 0.114181 13.7352C0.000649929 14.0725 -0.0290551 14.4437 0.0288228 14.8019C0.0867006 15.16 0.229562 15.4889 0.439341 15.7471C0.649119 16.0053 0.916394 16.1811 1.20737 16.2524C1.49834 16.3236 1.79994 16.287 2.07403 16.1473C2.34811 16.0076 2.58238 15.771 2.74721 15.4674C2.91203 15.1638 3 14.8068 3 14.4417C3 13.9521 2.84197 13.4825 2.56066 13.1363C2.27936 12.79 1.89783 12.5955 1.5 12.5955ZM15.5 13.2109H5.5C5.36739 13.2109 5.24022 13.2758 5.14645 13.3912C5.05268 13.5066 5 13.6631 5 13.8263V15.0571C5 15.2203 5.05268 15.3768 5.14645 15.4922C5.24022 15.6076 5.36739 15.6725 5.5 15.6725H15.5C15.6326 15.6725 15.7598 15.6076 15.8536 15.4922C15.9473 15.3768 16 15.2203 16 15.0571V13.8263C16 13.6631 15.9473 13.5066 15.8536 13.3912C15.7598 13.2758 15.6326 13.2109 15.5 13.2109ZM15.5 0.903226H5.5C5.36739 0.903226 5.24022 0.968061 5.14645 1.08347C5.05268 1.19888 5 1.3554 5 1.51861V2.74938C5 2.91259 5.05268 3.06912 5.14645 3.18452C5.24022 3.29993 5.36739 3.36476 5.5 3.36476H15.5C15.6326 3.36476 15.7598 3.29993 15.8536 3.18452C15.9473 3.06912 16 2.91259 16 2.74938V1.51861C16 1.3554 15.9473 1.19888 15.8536 1.08347C15.7598 0.968061 15.6326 0.903226 15.5 0.903226ZM15.5 7.05707H5.5C5.36739 7.05707 5.24022 7.12191 5.14645 7.23731C5.05268 7.35272 5 7.50925 5 7.67246V8.90323C5 9.06644 5.05268 9.22296 5.14645 9.33837C5.24022 9.45378 5.36739 9.51861 5.5 9.51861H15.5C15.6326 9.51861 15.7598 9.45378 15.8536 9.33837C15.9473 9.22296 16 9.06644 16 8.90323V7.67246C16 7.50925 15.9473 7.35272 15.8536 7.23731C15.7598 7.12191 15.6326 7.05707 15.5 7.05707Z" />
</svg>
