<svg width="18" height="19" viewBox="0 0 18 19" fill="none" xmlns="http://www.w3.org/2000/svg">
<path d="M17.5914 5.00461L15.6947 1.36243C15.5252 1.03547 15.2242 0.835083 14.9027 0.835083H3.09613C2.77466 0.835083 2.47365 1.03547 2.30415 1.36243L0.407495 5.00461C-0.571518 6.88547 0.296443 9.5011 2.12588 9.79993C2.25739 9.82102 2.39182 9.83157 2.52625 9.83157C3.39129 9.83157 4.15697 9.37454 4.683 8.6679C5.20904 9.37454 5.97764 9.83157 6.83976 9.83157C7.70479 9.83157 8.47047 9.37454 8.99651 8.6679C9.52254 9.37454 10.2911 9.83157 11.1533 9.83157C12.0183 9.83157 12.784 9.37454 13.31 8.6679C13.839 9.37454 14.6046 9.83157 15.4668 9.83157C15.6041 9.83157 15.7356 9.82102 15.8671 9.79993C17.7024 9.50461 18.5733 6.88899 17.5914 5.00461ZM15.4726 10.9601C15.1804 10.9601 14.891 10.9073 14.6105 10.8265V14.3351H3.38837V10.8265C3.10782 10.9038 2.8185 10.9601 2.52625 10.9601C2.35091 10.9601 2.17264 10.946 2.00022 10.9179C1.83656 10.8898 1.67583 10.8441 1.52094 10.7913V17.7101C1.52094 18.3323 1.93885 18.8351 2.45612 18.8351H15.5486C16.0659 18.8351 16.4838 18.3323 16.4838 17.7101V10.7913C16.326 10.8476 16.1681 10.8933 16.0045 10.9179C15.8262 10.946 15.6509 10.9601 15.4726 10.9601Z" />
</svg>
