<svg width="15" height="21" viewBox="0 0 15 21" fill="none" xmlns="http://www.w3.org/2000/svg">
<path d="M12.0487 0.129639H2.9356C1.85748 0.129639 0.982788 0.969482 0.982788 2.00464V18.2546C0.982788 19.2898 1.85748 20.1296 2.9356 20.1296H12.0487C13.1268 20.1296 14.0015 19.2898 14.0015 18.2546V2.00464C14.0015 0.969482 13.1268 0.129639 12.0487 0.129639ZM7.49216 18.8796C6.77206 18.8796 6.19028 18.321 6.19028 17.6296C6.19028 16.9382 6.77206 16.3796 7.49216 16.3796C8.21226 16.3796 8.79403 16.9382 8.79403 17.6296C8.79403 18.321 8.21226 18.8796 7.49216 18.8796ZM12.0487 14.6609C12.0487 14.9187 11.829 15.1296 11.5605 15.1296H3.4238C3.15529 15.1296 2.9356 14.9187 2.9356 14.6609V2.47339C2.9356 2.21558 3.15529 2.00464 3.4238 2.00464H11.5605C11.829 2.00464 12.0487 2.21558 12.0487 2.47339V14.6609Z" fill="#7E7E7E"/>
</svg>
